<?xml version="1.0" standalone="no"?>
<!DOCTYPE svg PUBLIC "-//W3C//DTD SVG 20010904//EN"
 "http://www.w3.org/TR/2001/REC-SVG-20010904/DTD/svg10.dtd">
<svg version="1.0" xmlns="http://www.w3.org/2000/svg"
 width="512.000000pt" height="512.000000pt" viewBox="0 0 512.000000 512.000000"
 preserveAspectRatio="xMidYMid meet">
<metadata>
Created by potrace 1.14, written by Peter Selinger 2001-2017
</metadata>
<g transform="translate(0.000000,512.000000) scale(0.100000,-0.100000)"
fill="#000000" stroke="none">
<path d="M3049 4989 c-90 -72 -173 -139 -184 -148 -11 -9 -24 -18 -30 -21 -5
-2 -18 -14 -28 -27 -10 -13 -22 -22 -25 -20 -4 2 -21 -11 -39 -28 l-31 -31
111 -44 c62 -24 120 -50 130 -58 9 -8 17 -11 17 -7 0 4 9 0 20 -10 11 -10 20
-14 20 -9 0 5 4 4 8 -2 4 -5 38 -27 76 -49 85 -47 221 -138 259 -173 15 -14
27 -24 27 -21 0 9 103 -86 194 -180 141 -145 164 -170 158 -176 -3 -2 3 -7 12
-11 9 -3 13 -10 10 -15 -3 -5 -1 -9 3 -9 14 0 193 -267 193 -287 0 -2 7 -11
15 -20 8 -8 13 -19 10 -24 -4 -5 -3 -9 2 -9 4 0 13 -12 20 -27 88 -203 145
-357 136 -367 -4 -3 -1 -6 5 -6 6 0 11 -8 11 -17 0 -17 8 -58 11 -58 1 0 3
-11 6 -25 2 -14 9 -37 15 -52 6 -15 8 -31 5 -37 -4 -5 -2 -12 4 -16 5 -3 8
-19 6 -35 -2 -17 0 -30 5 -30 4 0 8 -8 8 -17 -1 -10 3 -45 7 -78 10 -82 17
-484 8 -504 -7 -17 -13 -72 -13 -128 0 -18 -4 -33 -8 -33 -4 0 -9 -15 -10 -33
-1 -17 -4 -43 -7 -57 -8 -39 -14 -65 -16 -65 -1 0 -4 -11 -7 -25 -7 -39 -11
-55 -13 -55 -1 0 -3 -7 -5 -15 -2 -8 -7 -26 -10 -40 -4 -14 -7 -31 -7 -37 -1
-7 -6 -13 -11 -13 -5 0 -7 -6 -4 -14 3 -7 2 -17 -3 -22 -4 -5 -27 -56 -49
-114 -48 -122 -72 -172 -86 -182 -7 -5 -7 -8 0 -8 6 0 1 -7 -9 -15 -11 -8 -16
-15 -11 -15 4 0 1 -8 -8 -17 -8 -10 -16 -21 -17 -25 -2 -23 -138 -228 -178
-270 -14 -16 -23 -28 -20 -28 7 0 -26 -35 -179 -193 -58 -59 -107 -107 -109
-107 -3 0 -33 -24 -67 -53 -70 -59 -204 -150 -287 -193 -30 -16 -57 -31 -60
-34 -14 -14 -60 -39 -60 -33 0 5 -4 3 -8 -3 -6 -9 -179 -82 -257 -108 -18 -6
-17 -8 7 -24 15 -10 35 -28 46 -40 10 -12 22 -19 25 -16 3 3 13 -6 23 -20 9
-15 19 -25 21 -22 3 3 16 -5 29 -17 13 -12 35 -31 50 -42 15 -11 41 -33 58
-49 17 -16 33 -28 34 -27 2 2 18 -10 36 -25 18 -16 60 -50 94 -76 l60 -48 966
0 966 0 0 2560 0 2560 -954 0 -953 0 -164 -131z"/>
<path d="M2359 4439 c-17 -16 -35 -29 -39 -29 -5 0 -18 -11 -29 -26 -11 -14
-22 -25 -25 -24 -8 0 -215 -163 -215 -170 -1 -3 18 -5 42 -4 23 1 47 -2 52 -6
6 -5 22 -7 38 -5 15 2 27 -1 27 -5 0 -5 10 -7 22 -5 12 3 26 1 32 -4 6 -4 21
-7 34 -6 12 1 22 -1 22 -5 0 -4 11 -6 25 -5 14 2 25 0 25 -4 0 -4 6 -8 13 -8
26 -2 250 -88 307 -118 25 -13 57 -29 73 -36 15 -6 27 -15 27 -20 0 -5 5 -9
10 -9 17 0 150 -93 216 -151 34 -30 70 -61 80 -70 30 -26 117 -128 167 -199
26 -36 52 -71 57 -77 6 -7 7 -13 3 -13 -4 0 0 -5 10 -11 9 -5 17 -16 17 -23 0
-8 7 -19 15 -26 8 -7 13 -16 10 -20 -3 -5 -2 -10 2 -12 5 -1 26 -41 48 -88 22
-47 43 -87 48 -88 4 -2 5 -8 2 -13 -3 -5 0 -19 7 -31 7 -13 13 -25 13 -28 12
-48 18 -68 26 -83 5 -10 7 -22 4 -27 -4 -6 -2 -10 3 -10 5 0 8 -11 7 -25 -2
-14 0 -25 4 -25 7 0 12 -26 15 -77 0 -18 5 -33 9 -33 4 0 8 -17 8 -37 0 -21 2
-122 4 -225 2 -104 0 -190 -5 -193 -4 -3 -6 -14 -3 -25 3 -11 2 -28 -2 -37 -4
-10 -9 -29 -10 -43 -2 -14 -6 -36 -10 -50 -3 -14 -8 -34 -10 -45 -7 -40 -14
-65 -20 -75 -4 -6 -8 -21 -11 -34 -4 -26 -58 -154 -102 -246 -86 -180 -273
-404 -457 -547 -116 -90 -366 -222 -454 -239 -17 -4 -31 -10 -31 -15 0 -5 -3
-8 -7 -8 -5 1 -11 0 -15 -1 -5 -1 -12 -4 -18 -5 -5 -1 -11 -3 -12 -5 -5 -3
-75 -18 -118 -24 -14 -2 -26 -5 -27 -6 -2 -1 -11 -3 -20 -4 -10 -1 -22 -4 -28
-7 -5 -4 -25 -6 -42 -4 -18 1 -33 -1 -33 -5 0 -3 -25 -6 -55 -6 -30 1 -55 -2
-55 -5 0 -9 234 -194 243 -191 4 1 7 -2 7 -7 0 -5 20 -25 45 -45 l45 -37 80
18 c44 10 80 21 80 26 0 4 4 6 9 3 5 -4 22 -1 38 6 15 6 30 12 33 13 3 1 19 7
35 14 38 15 53 20 63 22 4 0 13 5 20 11 6 6 12 7 12 2 0 -5 4 -4 8 1 4 6 55
35 113 64 59 29 116 61 128 72 11 11 22 19 23 18 7 -3 78 44 78 52 0 5 5 9 11
9 42 0 439 396 423 422 -3 4 0 8 6 8 12 0 109 145 136 205 11 22 23 43 27 46
5 3 9 9 9 12 0 20 12 47 21 47 6 0 7 3 4 7 -4 3 0 15 10 25 9 10 13 18 8 18
-4 0 -2 7 5 15 7 8 10 15 6 15 -4 0 1 11 10 25 8 13 13 29 9 35 -3 5 -2 10 4
10 20 0 111 351 102 398 -1 6 2 12 6 12 10 0 11 23 13 270 2 107 -1 202 -4
211 -4 10 -6 23 -5 30 7 37 -64 356 -97 434 -9 22 -21 51 -27 65 -6 14 -11 28
-12 33 -2 4 -4 10 -5 15 -1 4 -2 10 -1 15 0 4 -4 7 -11 7 -6 0 -9 3 -5 6 3 3
-4 23 -17 43 -12 20 -33 59 -45 86 -58 126 -207 320 -362 472 -92 90 -257 223
-276 223 -7 0 -13 5 -13 10 0 6 -4 10 -9 10 -6 0 -29 13 -53 29 -24 15 -62 36
-85 46 -24 11 -43 22 -43 26 0 4 -13 10 -30 14 -16 4 -30 11 -30 16 0 6 -4 7
-10 4 -5 -3 -10 -1 -10 5 0 6 -3 9 -7 7 -5 -3 -30 6 -58 18 -27 13 -53 21 -57
19 -5 -3 -8 0 -8 6 0 7 -7 10 -15 6 -8 -3 -15 -1 -15 4 0 7 -41 21 -75 26 -5
0 -17 4 -25 7 -8 4 -34 11 -58 16 -39 8 -44 7 -73 -20z"/>
<path d="M1940 4111 c0 -5 -26 -28 -57 -52 -32 -24 -64 -48 -71 -54 -7 -5 -24
-21 -37 -35 -14 -14 -25 -21 -25 -16 0 5 -10 -3 -21 -18 -12 -15 -23 -25 -26
-22 -3 2 -19 -9 -36 -25 -53 -50 -63 -59 -70 -59 -4 0 -15 -7 -24 -15 -35 -28
-551 -440 -579 -462 -16 -12 -40 -30 -52 -40 -13 -10 -40 -33 -60 -51 l-37
-32 -300 -1 c-325 0 -345 0 -345 -9 0 -3 -15 -12 -34 -18 -51 -19 -99 -69
-134 -141 l-32 -64 0 -435 0 -434 26 -59 c15 -33 31 -59 35 -59 5 0 9 -7 9
-14 0 -20 53 -58 112 -82 27 -10 48 -21 48 -24 0 -3 135 -4 299 -2 281 3 300
2 312 -15 8 -10 34 -34 59 -53 25 -19 47 -37 50 -40 3 -3 34 -27 70 -55 36
-27 67 -52 70 -55 3 -3 39 -33 80 -65 41 -32 141 -112 222 -177 81 -65 151
-118 155 -118 5 0 14 -9 21 -20 7 -11 18 -20 25 -20 7 0 19 -9 27 -20 8 -11
19 -20 24 -20 5 0 19 -11 32 -25 13 -14 28 -25 33 -25 6 0 15 -9 21 -21 7 -11
14 -18 17 -15 3 2 16 -5 29 -17 13 -12 35 -31 50 -42 15 -11 38 -30 51 -42 13
-13 28 -23 33 -23 6 0 15 -9 22 -20 7 -11 16 -20 20 -20 5 0 8 62 8 138 l0
139 98 6 c99 6 277 40 297 57 7 6 14 8 17 5 3 -3 35 8 72 24 36 17 66 27 66
24 0 -4 7 2 15 13 8 10 15 15 15 10 0 -5 7 -3 15 4 8 7 15 9 15 4 0 -5 4 -4 8
1 4 6 48 37 99 69 51 31 104 71 118 87 14 17 25 28 25 25 0 -2 21 14 46 37 51
46 144 161 144 177 0 5 4 10 8 10 5 0 15 12 23 28 8 15 22 36 31 46 10 10 15
23 12 27 -2 4 1 11 9 16 17 11 102 214 117 283 7 30 15 62 18 70 19 55 37 446
20 453 -3 1 -9 25 -12 52 -8 72 -42 196 -73 263 -14 31 -25 63 -24 70 1 6 -4
12 -10 12 -7 0 -9 3 -6 7 4 3 -4 21 -18 38 -13 18 -21 35 -18 39 4 3 1 6 -6 6
-7 0 -9 5 -6 10 3 6 2 10 -2 10 -5 0 -17 16 -27 35 -11 19 -23 35 -28 35 -4 0
-8 6 -8 13 0 8 -17 32 -38 55 -22 23 -36 42 -33 42 3 0 -21 26 -53 58 -33 31
-60 55 -62 52 -1 -3 -12 8 -25 23 -23 30 -178 137 -198 137 -6 0 -11 4 -11 8
0 10 -80 48 -92 44 -5 -1 -8 3 -8 10 0 6 -3 8 -7 5 -3 -4 -15 0 -25 10 -10 9
-18 13 -18 10 0 -3 -20 3 -44 14 -24 10 -57 20 -73 22 -16 2 -34 6 -40 10 -18
11 -202 37 -265 37 l-58 0 0 130 c0 80 -4 130 -10 130 -5 0 -10 -4 -10 -9z
m185 -585 c17 -2 31 -5 33 -6 1 -1 10 -3 20 -4 9 -1 22 -4 27 -7 6 -4 26 -10
45 -14 19 -4 40 -11 46 -16 6 -5 19 -10 30 -12 11 -1 35 -12 54 -24 19 -11 52
-28 73 -38 20 -9 37 -22 37 -27 0 -5 4 -7 9 -3 5 3 16 -3 23 -13 7 -11 17 -19
22 -19 12 -1 166 -146 166 -157 0 -5 8 -16 18 -25 34 -30 138 -224 157 -293 2
-5 3 -9 5 -10 1 -2 3 -10 5 -18 2 -8 7 -26 11 -40 3 -14 7 -40 7 -57 0 -18 3
-33 7 -33 9 0 12 -279 3 -293 -4 -6 -8 -29 -9 -50 -2 -22 -7 -43 -11 -46 -4
-3 -9 -15 -11 -26 -7 -55 -10 -66 -21 -79 -7 -8 -10 -20 -6 -26 3 -5 1 -10 -6
-10 -7 0 -10 -3 -6 -6 3 -4 -1 -13 -9 -21 -8 -8 -12 -19 -9 -24 4 -5 2 -9 -2
-9 -5 0 -24 -29 -42 -65 -17 -36 -36 -65 -41 -65 -6 0 -10 -6 -10 -14 0 -8
-10 -22 -22 -30 -12 -9 -19 -16 -14 -16 5 0 -18 -26 -51 -57 -68 -66 -106 -98
-111 -94 -2 1 -9 -4 -15 -13 -14 -17 -60 -45 -137 -82 -84 -40 -100 -46 -145
-59 -16 -4 -34 -10 -40 -14 -5 -3 -18 -6 -27 -7 -10 -1 -19 -3 -20 -4 -6 -5
-67 -11 -128 -13 l-65 -2 -3 163 -2 162 48 0 c26 0 75 7 107 15 73 19 195 74
195 88 0 6 3 7 7 4 3 -4 13 2 20 13 8 11 19 18 24 15 5 -4 9 1 9 9 0 9 5 16
10 16 11 0 85 70 85 80 0 4 8 14 18 24 9 10 17 21 17 26 0 5 6 15 13 22 20 21
64 129 77 194 18 81 15 227 -4 305 -19 76 -78 201 -109 229 -11 11 -18 20 -14
20 4 0 -16 24 -45 54 -29 29 -56 51 -60 49 -4 -2 -13 5 -20 15 -18 26 -171 98
-236 111 -29 6 -73 11 -97 11 l-45 0 0 163 0 163 68 -3 c37 -1 81 -4 97 -7z
m-97 -645 c1 -1 4 -1 7 -1 18 -2 88 -32 99 -42 7 -7 28 -27 48 -44 34 -30 52
-57 81 -122 19 -45 17 -209 -3 -222 -8 -6 -11 -10 -6 -10 5 0 3 -7 -4 -15 -7
-8 -9 -15 -5 -15 9 0 -36 -60 -71 -95 -14 -14 -29 -25 -34 -25 -6 0 -10 -5
-10 -10 0 -6 -3 -9 -7 -8 -5 1 -21 -5 -38 -12 -35 -15 -49 -19 -92 -24 l-33
-4 0 322 c0 178 2 325 5 328 4 4 52 3 63 -1z"/>
</g>
</svg>
