<svg xmlns="http://www.w3.org/2000/svg" width="512" height="512"><style>.B{fill:#600857}.C{fill:#0e0724}.D{fill:#99391b}.E{fill:#420250}.F{fill:#1b0733}.G{fill:#e76513}.H{fill:#420251}.I{fill:#720e54}.J{fill:#831552}.K{fill:#1e0a35}.L{fill:#8f194c}.M{fill:#a32240}.N{fill:#05020e}.O{fill:#f09312}.P{fill:#cf4025}.Q{fill:#674a29}.R{fill:#490452}</style><path d="M1 213.5c3.3-5.8 6-11.7 10.2-16.3a25 25 0 0 1 19.5-7.6c4.1 0 8.3 0 12.9.6l.4 134c-8.8 0-17.6 1.4-26-2.9a33.9 33.9 0 0 1-16.7-20.1L1 213.5z" class="L"/><path fill="#0b041a" d="M391.5 138.1a515 515 0 0 1-14-21.1c1.7-.4 3.3 0 5 0l63 1.7 67.5.3c0 5.4 0 10.7-.5 16.5l-121 2.6zM377 397l14.8-20.9L513 378c0 5.4 0 10.7-.5 16.5l-68 .5c-8.4 0-17 .6-25.5.8l-42 1.3z"/><path fill="#ebd951" d="M513 439c0 6.4 0 12.7-.5 19.5-12 .5-23.4.7-34.9.4l-50.7-1.5c-6.7-.2-13.4-1-20.1-1.7-8-2.2-15.8-4-23.7-6v-1.5l9.6-1.8-5-1 21-2.5v-.4c-1.2-.2-2.4-.4-3.4-.8a65.7 65.7 0 0 1 25.2-.8c2.4.5 5-.1 7.5-.3 7.5-.5 15-1.4 22.5-1.5l52.5-.1zm0-384c0 6.4 0 12.7-.5 19.5-12 .5-23.4.7-34.9.4l-50.7-1.5c-6.7-.2-13.4-1-20.1-1.7-8-2.2-15.8-4-23.7-6v-1.5l9.6-1.8-5-1 21-2.5v-.4c-1.2-.2-2.4-.4-3.4-.8a65.7 65.7 0 0 1 25.2-.8c2.4.5 5-.1 7.5-.3 7.5-.5 15-1.4 22.5-1.5L513 55z"/><path fill="#23033d" d="M308.6 503.7c-3.5-2.7-7.1-5.3-10.4-8.3 7.8-.3 15.2-.3 23.3-.3l-6.9-2.8c6.2-1.4 12-2.3 17.6-2.4 5 0 9.9.7 15 1 .6-.5 1-1.2 1.2-1.2 6.9 1.4 13.7 3.5 20.6 4.2 14.5 1.6 29 2.8 43.6 3.6 17.8 1 35.6 1.6 53.4 2 15.7.2 31.3-.3 47-.5 0 2 0 4-.5 6.6-21.7 0-43-.3-64.2-.6l-61.9-1-73.3-1c-1.5 0-3 .4-4.5.7z"/><path fill="#2c053f" d="M276.5 38c7.9-6.4 15.7-12.7 24.4-19 9.5-1.2 18.1-2.7 26.8-3.4 12.1-.9 24.3-1.1 36.5-1.6l71.5-2.9c25.8-.5 51.5-.1 77.3-.1 0 1 0 2.1-.4 3.6-1 .3-1.6 0-2.3.1l-99.4 1.4c-13.3.4-26.7 1.4-40 3.1-11.8 1.6-23.4 4.5-35 7-1 .1-2 1.2-2.9 1.8h-1.2l-.9-.1c-.3-.1-.6 0-1.2.3-1.9.7-3.6 2-4.8 1.6-6.5-2.1-12.2 1-18.2 2-10.1 1.8-20.2 4-30.2 6.1z"/><path fill="#38024d" d="m376.7 397.2 42.3-1.4 25.6-.8h68c.4 2.7.4 5.4 0 8.5-38.7 0-76.8.7-114.8 3.6-5 .4-9.9 1.9-14.8 2.9v-.2c-.4 0-.7 0-1.2.2-.5 0-.6 0-.9-.2-.3 0-.6 0-.9.2l-.3-.1c-4.7 0-9.2 0-13.7.2l10.7-12.9zM513 118.6h-67.4c-21-.2-42.1-1-63.2-1.6-1.6 0-3.2-.4-5.1-.3-3.9-4-7.4-8-11-12.7a69 69 0 0 1 10.7-1l.1.3c4.5 1.3 8.7 3 13 3.4 8.4.8 16.8.8 25 1.2 13.4.7 26.7 1.8 40 2 19.3.4 38.6.1 57.9.1v8.6z"/><path fill="#eb7d12" d="M406.9 72c6.6.5 13.3 1.2 20 1.4l50.7 1.5c11.5.3 23 0 35 0 .4 3.8.4 7.5 0 11.7-11.3.5-22.4.8-33.4.5l-54-2.3a81 81 0 0 1-20.8-4.2c-4.6-1.6-8.4-5.6-14-5-.4.1-1-1-1.3-1.8l17.8-1.8zm0 384c6.6.5 13.3 1.2 20 1.4l50.7 1.5c11.5.3 23 0 35 0 .4 3.8.4 7.5 0 11.7-11.3.5-22.4.8-33.4.5l-54-2.3a81 81 0 0 1-20.8-4.2c-4.6-1.6-8.4-5.6-14-5-.4.1-1-1-1.3-1.8l17.8-1.8z"/><path fill="#080415" d="M424.1 265c0-5 0-10 .4-15.5l88.5.5c0 4.4 0 8.7-.5 13.5l-88.4 1.5z"/><path fill="#bf531e" d="M389 74.1c.4.6 1 1.6 1.4 1.5 5.6-.6 9.4 3.4 14 5a81 81 0 0 0 20.9 4.2c18 1.2 36 1.8 53.9 2.3 11 .3 22 0 33.5 0 .3 1.3.3 2.7-.2 4.5l-58.8.4c-7.9 0-15.8.1-23.7-.2a551 551 0 0 1-28.2-2.1l-35.9-7.6-18-4c-3.8-.8-7.6-1.4-11.4-2a71 71 0 0 1-6-4.5c1.7-.8 3.6-1.4 5.6-1.3 5.9.2 11.7.8 17.6 1.2l22.2 1c4.3.4 8.7 1.1 13 1.6zm0 384c.4.6 1 1.6 1.4 1.5 5.6-.6 9.4 3.4 14 5a81 81 0 0 0 20.9 4.2c18 1.2 36 1.8 53.9 2.3 11 .3 22 0 33.5 0 .3 1.3.3 2.7-.2 4.5l-58.8.4c-7.9 0-15.8.1-23.7-.2a551 551 0 0 1-28.2-2.1l-35.4-7.5a540 540 0 0 1-29.5-7.5c-1-1.2-2.2-1.8-3.1-2.7-1-.9-1.8-2-2.4-2.8l6.5.4 19.2 1.9c6.6.5 13.2.6 19.7 1.1 4 .3 8 1 12.1 1.5zm-59-15.9c2-1.3 4-2.7 6.7-4.2 5.4-1.4 10-3 14.7-4l33.6-6.5c5-1 10-2.3 15.1-3.2.7.4 1.2.6 1.7.6l54.4-2.8c19-.5 37.9 0 56.8-.1 0 1.4 0 2.8-.3 4.6-17.3.3-34.3-.2-51.3.3-16.7.5-33.4 1.8-50 3.4-4.2.5-9.6 1-11.7 6.7l-7.7 2v-.2c-.5 0-.8 0-1.5.2l-23 3c-10 1.4-20-1.3-29.8 2.2-2 .7-5-1.3-7.6-2zM513 38c0 1.4 0 2.8-.3 4.6-17.3.3-34.3-.2-51.3.3-16.7.5-33.4 1.8-50 3.4-4.2.5-9.6 1-11.7 6.7a431 431 0 0 1-7.7 2v-.2c-.5 0-.8 0-1.5.2l-26 3-31.6 2.6c-2.5-4.3 3-3.3 3.3-5.4 4.8-1.6 9.2-3.9 13.9-5 11.3-2.4 22.7-4.2 34-6.4 5.3-1 10.6-2.5 16-3.5.7.4 1.2.6 1.7.6l54.4-2.8c19-.5 37.9 0 56.8-.1z"/><path d="m402 474 28 1.8c8 .3 15.8.2 23.7.2h58.8a26 26 0 0 1 0 8.5l-104-1.6c-6.9-.2-13.7-1.3-20.6-2.2-.3-.4-.6-.6-.9-.7v-.3c0-.8 0-1.3.3-1.6 5.9 1.4 11.2 1.9 14.7-4.1zm0-384 28 1.8c8 .3 15.8.2 23.7.2h58.8a26 26 0 0 1 0 8.5l-104-1.6c-6.8-.2-13.7-1.3-20.6-2.1-.3-.5-.6-.7-.9-.8v-.3c0-.8 0-1.2.3-1.6 5.9 1.4 11.2 1.9 14.7-4.1z" class="M"/><path d="M513 498.6a890.2 890.2 0 0 1-100.4-1.1c-14.6-.8-29.1-2-43.6-3.6-7-.7-13.7-2.8-20.6-4.2-.2 0-.6.7-1.2.8-3-1.8-5.7-3.1-9-2.7-1.3.2-2.8-1.2-4-2 4.4 0 8.5.6 12.4.1 3.1-.3 7 2 9.7-1.7l2 .9h6c.2 0 .7 0 .7.3 4 .7 8 1.1 12 1.6l.2.2c5.3 1.3 10.4 2.7 15.7 3.3 7.4.8 15 1 22.5 1.4l52.8 2c14.9.4 29.9.1 44.8.1v4.6z" class="E"/><path d="M319.5 513c-1.3-1-2.1-2-3-3.4.3-.9.8-1.5 1.3-1.5l58.1-1c16.6 0 33 .8 49.6.9H513v5H319.5zM318 4.9c1.3-1.1 2.6-2.2 4-3.6L513 1c0 1.3 0 2.7-.5 4.5a7658 7658 0 0 1-126.4 1.4c-21.5 0-43-.5-64.6-1-1.2 0-2.4-.7-3.6-1z" class="N"/><path d="M333 28c1-.6 1.8-1.7 2.8-1.9 11.7-2.4 23.3-5.3 35.1-6.9a384.4 384.4 0 0 1 40-3l99.4-1.5 2.3.3a9 9 0 0 1 0 4.6c-38.7-.1-76.8.6-114.8 3.5-5 .4-9.9 2-14.8 3l-.1-.3-1.1.2c-.5 0-.6 0-.9-.2l-.9.2h-.2c-3.9.2-7.5.5-11 1-2 .4-3.9 1.3-5.8 2h-3.3c-.2 0-.7 0-.8-.2h-3.1c-1.3-.6-2.2-1.5-3.2-1.4-6.5 0-13 .4-19.6.6z" class="E"/><path fill="#a52340" d="M403.6 353.8c.9-2.8 1.8-5.7 3.2-8.4 15.8 1 31 2.2 46.3 2.5 20 .4 40 .1 59.9.1 0 2.7 0 5.4-.5 8.5-30.7.1-61 0-91.2-.6-6-.1-11.8-1.3-17.7-2z"/><path fill="#eaec6f" d="M414 325.9c.7-3.5 1.5-7 2.7-10.3 5.6.7 10.9 1.9 16.2 1.8 9.4 0 18.8-1.2 28.3-1.3 17.3-.3 34.5-.1 51.8-.1 0 3 0 6-.5 9.5-3 .5-5.4.5-8 .5l-68.4-1.4c-7.4 0-14.8.8-22.2 1.3zm2.2-127.9c-.8-3-1.5-6-1.9-9.4 6.6 0 12.9.8 19 .7 8.7-.1 17.3-1.1 26-1.2l53.7-.1c0 3 0 6-.5 9.5-25.9 0-51.3-.6-76.8-.8-6.5-.1-13 .8-19.5 1.3z"/><path fill="#23043e" d="m391.5 138.5 121-2.5c.5 2 .5 4 .1 6.6-14.9.3-29.5 0-44 .2a2167.4 2167.4 0 0 0-73 2.4 91.3 91.3 0 0 1-4.1-6.7zM513 377.6l-121-1.7c.7-2.3 1.9-4.5 3.8-6.9l30.4 1 30 1.2 56.8-.2v6.6z"/><path d="m513 10.6-77.3.5c-23.8.5-47.7 1.9-71.5 2.9-12.2.5-24.4.7-36.5 1.6-8.7.7-17.3 2.2-26.4 3.4 3-3 6.5-6 10.6-8.7 1.2.3 1.8.7 2.4.7l46-1 42-1L505 8h8v2.6z" class="F"/><path d="m392 439 8.1-2c4.4-.5 8.1-1.2 11.9-1.5 6.4-.4 12.9-.5 19.4-.7l43.2-1.7c12.8-.3 25.6-.1 38.4-.1v5.6l-52.5.5c-7.5.1-15 1-22.5 1.5-2.5.2-5.1.8-7.5.3a67.4 67.4 0 0 0-25.5.8c-3 .2-5.6.5-8 0-1.7-.4-3.3-1.8-5-2.7zm0-384 8.1-2c4.4-.5 8.1-1.2 11.9-1.5l19.8-.9c10.3-.5 20.5-1.4 30.8-1.5 16.8-.3 33.6-.1 50.4-.1v5.6l-52.5.5c-7.5.1-15 1-22.5 1.5-2.5.2-5.1.8-7.5.3a67.4 67.4 0 0 0-25.5.8c-3 .2-5.6.5-8 0-1.7-.4-3.3-1.8-5-2.7z" class="O"/><path fill="#781153" d="M388 97c6.8.6 13.7 1.7 20.5 1.9l104 2c.5 1.5.5 2.9 0 4.7a1730.5 1730.5 0 0 1-101-.7c-8.2-.4-16.5-2-24.8-2.7-3.2-.3-6.5.5-9.7.8v-.2l-2-2.1c3-.6 6.2-.7 9.1-1.3 1.4-.3 2.6-1.6 4-2.4zm0 384c6.8.6 13.6 1.7 20.5 1.9l104 2c.5 1.5.5 2.9 0 4.7a6498 6498 0 0 1-88.6-.6c-12.6-.2-25.3 1-37.7-2.8-2.7-.8-6.1.5-9.2.8v-.3l-2-2c3-.6 6.2-.7 9.1-1.3 1.4-.3 2.6-1.6 4-2.4z"/><path fill="#8a184d" d="M513 27c0 1.4 0 2.8-.5 4.6-37.8-.4-75.2 1-112.8 3.4l-17 .7-1.6-1 6.2-3.8 13.4-1 61.4-2.8c17-.5 34-.1 50.9-.1z"/><path d="M513 432.6c-12.8.4-25.6.2-38.4.5-14.4.3-28.8 1.1-43.2 1.7l-19.4.7c-3.8.3-7.5 1-11.6 1.4 1.4-5.5 6.8-6.1 11-6.6 16.6-1.6 33.3-2.9 50-3.4 17-.5 34 0 51.3 0 .3 1.8.3 3.5.3 5.7zm0-384-50.4.5c-10.3.1-20.5 1-30.8 1.5l-19.8 1c-3.8.2-7.5.9-11.6 1.3 1.4-5.5 6.8-6.1 11-6.6 16.6-1.6 33.3-2.9 50-3.4 17-.5 34 0 51.3 0 .3 1.8.3 3.5.3 5.7z" class="G"/><path fill="#8a184d" d="M513 411c0 1.4 0 2.8-.5 4.6-37.8-.4-75.2 1-112.8 3.4-4.5 0-8.6 0-12.7-.3.3-1.5.7-2.6 1.2-4 4.4-.4 8.6-.5 12.8-.7 17-1 34-2.5 51-2.9 20.4-.5 40.7-.1 61-.1z"/><path d="m513 507.7-87.5.3c-16.5-.1-33-1-49.6-1l-58 1c-.6.1-1.1.7-1.8 1.4a49.5 49.5 0 0 1-7.4-5.4c1.4-.6 3-1 4.4-1l73.3 1 61.9 1 64.2 1c.5.4.5.9.5 1.7z" class="C"/><path d="M513 370.6c-18.9.5-37.8.7-56.7.6-10-.1-20-.8-30-1.2l-30.3-1c.6-1.8 1.6-3.5 3.2-5.6l56.3 2.6c19.1.5 38.3.1 57.4.1v4.6z" class="H"/><path fill="#b12838" d="M400 419a1357 1357 0 0 1 112.5-3c.5 1.7.5 3.4.5 5.6l-56.8.5c-18.1.5-36.3 1.8-54.4 2.8-.5 0-1-.2-1.5-.9l-.3-5zm0-384a1357 1357 0 0 1 112.5-3c.5 1.7.5 3.4.5 5.6l-56.8.5c-18.1.5-36.3 1.8-54.4 2.8-.5 0-1-.2-1.5-.9l-.3-5z"/><path d="M395.6 145.5c12-.9 23.8-1.5 35.6-2l37.3-.7 44.1.2a9 9 0 0 1 0 4.6c-15.7.4-30.8.4-45.9.4-6.5 0-13-.3-19.4 0l-48.2 3a71.8 71.8 0 0 1-3.5-5.5z" class="H"/><path d="M513 7.7c-2.7.3-5.3.3-8 .3L402.2 9l-41.8 1-46.1 1c-.6 0-1.2-.4-2.2-1a45 45 0 0 1 5.5-5c1.5.2 2.7 1 4 1l64.5 1 126.4-1c.5.4.5.9.5 1.7z" class="C"/><path d="M411.8 181.5c-1-2.5-1.9-5-2.6-7.9 1.5.1 2.8 1 4 .8l56.5-3.6c14.4-.6 28.9 0 43.3.2 0 1.7 0 3.4-.5 5.6l-67.8 1.4c-6.6 0-13.2-.5-19.7.2-4.4.5-9.7-1.4-13.2 3.3zm-2.9 159.4c.8-2.6 1.6-5.3 2.8-7.8 1.7.7 3 1.7 4.3 1.8 4.2.3 8.4.2 12.6.4l35.5 1.6c16.3.3 32.6.1 48.9.1 0 1.7 0 3.4-.3 5.6-7 .5-13.7.3-20.3.5-26.2.8-52.3-.5-78.3-3.5-1.7-.2-3.5.8-5.2 1.3z" class="G"/><path fill="#b12839" d="M406.9 168c-.7-1.3-1.4-2.7-1.8-4.5 13.2-1.3 26.2-2.5 39.2-2.9l68.7-.6c0 1.7 0 3.4-.5 5.6-35.5 1-70.6-1-105.6 2.5z"/><path fill="#f09313" d="M513 336.6c-16.3.4-32.6.6-48.9.3-11.8-.2-23.7-1-35.5-1.6-4.2-.2-8.4 0-12.6-.4-1.4 0-2.6-1-4-2a6 6 0 0 1 1.2-3.5c2 .1 3.5.5 5 .6l33.6.6 61.2.4v5.6zM411.9 181.9c3.4-5.1 8.7-3.2 13.1-3.7 6.5-.7 13.1-.1 19.7-.2l67.8-1c.5 1.7.5 3.4 0 5.6l-53.9.5c-5.9 0-11.8.7-17.7 1-4.7.2-9.5 0-14.2.2l-13.6.8-1.2-3.2z"/><path fill="#23033e" d="m424 265.4 88.5-1.4c.5 2 .5 4 .1 6.6-7.6.3-15 0-22.3.1l-66.2 1.3v-6.6zm89-15.8c-29.3 0-58.6-.3-88.4-.6-.5-2-.6-4-.1-6.6 10.9 0 21.3.7 31.7.7l56.8-.1v6.6z"/><path fill="#f09313" d="M419.9 212.6c-.9-3.3-1.7-6.5-2.3-10.2 11.6-.2 23 .1 34.2.2l61.2.4c0 1.7 0 3.4-.5 5.6-31 .1-61.5-.2-92.2-.5l-.4 4.5zm-1.1 93.8c.2-1.5.5-3 1-4.3l.7 3.9 92.5-1c0 1.7 0 3.4-.5 5.6l-61.2.9c-10.9.1-21.7.7-32.5 1.1v-6.2z"/><path d="M408.6 341c2-.6 3.8-1.6 5.5-1.4 26 3 52 4.3 78.3 3.5 6.6-.2 13.3 0 20.3 0 .3 1.3.3 2.7.3 4.5-20 .4-40 .7-59.9.3-15.2-.3-30.5-1.6-46-2.7a12 12 0 0 1 1.5-4.1zM407 168.4c34.9-3.7 70-1.9 105.5-2.4.5 1.4.5 2.8.5 4.6-14.4.3-28.9-.4-43.3.2-18.8.7-37.6 2.5-56.4 3.6-1.3.1-2.6-.7-4.2-1.2-.9-1.5-1.5-3-2.2-4.8z" class="P"/><path d="m513 304.6-92.5 1.4-.6-4.2c0-.4.2-.7.9-.8l49-2.2c14.3-.4 28.8 0 43.2.2v5.6z" class="G"/><path fill="#781153" d="M403.3 354c6.2.6 12 1.8 18 1.9l91.2 1c.5 1.5.5 2.9 0 4.7-37.8 0-75-.3-112.4-.6l3.2-7z"/><path d="M420 212.8c0-1.7.2-3.1.3-4.7l92.2.9c.5 1.7.5 3.4.2 5.6-2.3.5-4.3.7-6.2.6-16.2 0-32.5.1-48.7-.3-12.5-.3-24.9-1.2-37.4-1.9 0 0-.3 0-.4-.2z" class="G"/><path fill="#b12839" d="M421.5 294.9c.1-1.4.3-2.7.8-4.5 7.5-.9 14.6-1.7 21.6-1.8l69.1-.6c0 1.7 0 3.4-.5 5.6l-71.9.4c-6.3 0-12.7.6-19 .9zm.5-70.9c0-1.4-.2-2.7 0-4.5 11-.1 21.7.4 32.3.5H513c0 1.7 0 3.4-.5 5.6l-90.4-1.6z"/><path fill="#ecc734" d="M413 185.4c4.6-.6 9.1-1 13.7-1 4.7-.2 9.5-.1 14.2-.3 6-.3 11.8-1 17.7-1l54-.1c.4 1.4.4 2.8.4 4.6l-53.8.5c-8.6 0-17.2 1-25.8 1.2-6.2 0-12.5-.6-19-1-.8-1-1-1.8-1.4-2.9zm100 145.2c-20.4.3-40.8.2-61.2 0-11.2 0-22.4-.4-33.7-.6-1.4 0-2.9-.5-4.7-.9a5 5 0 0 1 .2-3c7.7-.7 15-1.6 22.5-1.5l68.5 1.4h8c.4 1.4.4 2.8.4 4.6z"/><path fill="#ebc635" d="M418.6 306.6c.2 1.4.2 3 .2 6l32.5-1.1 61.2-.5c.5 1.4.5 2.8.5 4.6l-51.8.5c-9.5.1-18.9 1.2-28.3 1.3-5.3 0-10.6-1-16-2.1.4-3 1-5.8 1.7-8.7z"/><path d="M377.1 103.3c3.1-.6 6.4-1.4 9.6-1.1 8.3.7 16.6 2.3 24.8 2.7 15.4.7 30.8 1 46.2 1l54.8.1c.5 1 .5 2.1.5 3.6-19.3.4-38.6.7-58 .3-13.2-.2-26.5-1.3-39.8-2-8.3-.4-16.7-.4-25-1.2-4.4-.4-8.6-2-13-3.4zm.1 383.9c2.9-.5 6.3-1.8 9-1 12.4 3.8 25.1 2.6 37.7 2.8l88.6 1c.5 1 .5 2.1.5 3.6-15 .4-29.9.7-44.8.3a2328.3 2328.3 0 0 1-75.3-3.4c-5.3-.6-10.4-2-15.7-3.3z" class="B"/><path d="M513 242.6c-19 .5-37.9.7-56.8.5-10.4 0-20.8-.7-31.6-1a13 13 0 0 1-.3-5.6l40.3 1.4c16.1.3 32.3.1 48.4.1v4.6z" class="H"/><path d="m513 219.6-58.7.4c-10.6-.1-21.2-.6-32.3-1-.8-1.6-1.1-3.4-1.5-5.6 12.4.3 24.8 1.2 37.3 1.5 16.2.4 32.5.3 48.7.3 2 0 3.9 0 6.2-.2.3 1.4.3 2.8.3 4.6z" class="P"/><path fill="#ecc734" d="M513 202.6c-20.4.3-40.8.2-61.2 0-11.3 0-22.6-.4-34.2-.6-.7-1-1-2.2-1.4-3.7 6.5-.8 13-1.7 19.5-1.6l76.8 1.3c.5 1.4.5 2.8.5 4.6z"/><path d="M421.2 295.1c6.7-.5 13-1 19.4-1l72-.1c.4 1.4.4 2.8.4 4.6-14.4.3-28.9-.2-43.3.2-16 .3-32.1 1.4-48.7 2.2a14 14 0 0 1 .2-5.9z" class="P"/><path d="m424 272.4 66.3-1.7 22.3.3a9 9 0 0 1 0 4.6c-2.9.4-5.2.4-7.5.4l-68.9 1c-4 .1-8 .7-12 1-.1-1.7-.2-3.5-.1-5.6z" class="H"/><path d="M383 26c5-1 9.8-2.5 14.8-3 38-2.8 76.1-3.5 114.7-3 .5 1 .5 2.1 0 3.6L441.2 25c-18.7.4-37.5-1.4-56.1 2-.7.2-1.4-.6-2.1-1zm0 384c5-1 9.8-2.5 14.8-3 38-2.8 76.1-3.5 114.7-3 .5 1 .5 2.1 0 3.6l-71.3 1.4c-18.7.4-37.5-1.4-56.2 2-.6.2-1.3-.6-2-1z" class="B"/><path d="M383 410c.7.4 1.4 1.2 2 1 18.7-3.4 37.5-1.6 56.2-2l71.3-1c.5.7.5 1.5.5 2.6l-61 .5c-17 .4-34 1.9-51 2.9l-13.2.6a26 26 0 0 1-5.9-1c-.6-1.4-1.3-2.5-1.9-3.6h3zm0-384c.7.4 1.4 1.2 2 1 18.7-3.4 37.5-1.6 56.2-2l71.3-1c.5.8.5 1.5.5 2.6l-50.9.5c-20.5.6-41 1.9-61.4 2.9l-13.6.6c-2.1-.3-3.6-.5-5.2-1-.6-1.4-1.3-2.5-1.9-3.6h3z" class="I"/><path d="m400 361.3 112.5.7c.5 1 .5 2.1.5 3.6-19.1.4-38.3.8-57.4.3-18.6-.5-37.2-1.9-56.2-2.9 0-.5.2-1 .6-1.7zm-1-210 48.3-3.2c6.4-.4 13-.1 19.4-.1h45.8c.5 1 .5 2.1 0 3.6L400.1 153l-1-1.7z" class="B"/><path d="m400 153.3 112.5-1.3c.5.8.5 1.5 0 2.6l-68.6.5c-1.7 0-3.3 1.2-5.3 1.9-2.8 0-5.2 0-7.8-.3-1.8.3-3.3.8-5.3 1.3-4.1 0-7.8 0-11.7-.3-3.9 0-7.4.2-11 .4-1-1.5-1.8-3-2.7-4.8z" class="I"/><path d="M431 157h82v2.6l-68.7 1c-13 .4-26 1.6-39.3 2.5-.7-.7-1-1.5-1-2.7 3.6-1 6.8-1.7 10-2.4h12c2.2-.3 3.6-.7 5-1z" class="L"/><path d="M513 237.6c-16.1.4-32.3.6-48.4.3-13.3-.2-26.6-1-40.2-1.8-.7-.9-1-1.6-.9-2.8l89.5.7v3.6zm-89 40.7c4.2-.6 8.2-1.2 12.2-1.3l68.9-1h7.4c.5 1 .5 2.1 0 3.6l-89.4 1.4.9-2.7z" class="B"/><path d="m513 287.6-69 1c-7.1 0-14.2.9-21.6 1.4 0-1.1.2-2.2 1-3.7.8-.3 1.2-.3 2-.3l6-1H513v2.6zm-91-63.3 90.5 1.7c.5.8.5 1.5 0 2.6l-73 .4c-1.7 0-3.1 0-4.8-.3a74 74 0 0 0-8.1-.7h-3.5a27 27 0 0 1-1.1-3.7z" class="L"/><path d="M423 228.4c1.2-.4 2.2-.4 3.7 0 3 .5 5.7.5 8.3.6 1.4 0 2.8 0 4.7.4 2.3.8 4.1 1.5 6 1.5l67.3.1v2.6c-29.7 0-59.3-.3-89.4-.6-.5-1.4-.6-2.8-.5-4.6zm14 56.6c-1.8 0-3.6.1-6-.2-2.3.1-4.2.7-6 1.2h-1.6c-.3-1.4-.4-2.8-.4-4.6l89.5-1.4c.5.8.5 1.5 0 2.6l-53.3.4c-6.7 0-13.5.2-20.3.4-.7 0-1.3 1-2 1.6z" class="I"/><path d="M437.4 285c.2-.6.8-1.5 1.5-1.6a694 694 0 0 1 20.3-.4h53.3c.5.4.5.9.5 1.7l-75.6.3zM513 156.7l-73.5.3c1.1-.7 2.7-2 4.4-2h68.6c.5.4.5.9.5 1.7zm0 74-67.3.2c-1.9 0-3.7-.7-5.6-1.5l72.4-.4c.5.4.5.9.5 1.7z" class="J"/><path fill="#650959" d="m176.6 398.2-18.2-13.9a115 115 0 0 1-11.1-9.2c.4-2 .7-3.5.7-5v-224c0-1.8-.8-3.5-1.2-5.2l19-15c3.4-2.6 6.9-5.3 11-7.7a11 11 0 0 1 1.2 4.7v270.3c0 1.6-1 3.3-1.4 5z"/><path d="M44.5 324.2 44 190.4c12-.5 24-.4 35.9-.5 2 0 4.1-.6 6.6-.6l.4 138.1c-2.5-3.1-5.9-3.5-9.7-3.4-10.7.3-21.5.2-32.7.2z" class="J"/><path fill="#5e0757" d="M176.8 398.5c.3-2 1.1-3.7 1.1-5.3V122.9c0-1.5-.3-3-.8-4.7 4.6-4.6 9.5-8.9 14.4-13.1l5.5-4.6v26.4l.1 33v255.6l-20.3-17z"/><path fill="#6c0c58" d="M146.5 141c.7 1.6 1.4 3.3 1.5 5v224.1c0 1.5-.3 3-.8 4.7a211 211 0 0 1-20.1-15.8l-.1-202.1 19.5-15.8z"/><path fill="#781054" d="M87 327.7V189.1c7.8-6.7 15.6-12.8 23.7-18.6l.3 175.7-21-16.3-3-2.2z"/><path fill="#710e53" d="M111 346.5V170.3c5-4.7 10.2-9 15.6-13.3l.4 201.7a241 241 0 0 1-16-12.2z"/><path fill="#220932" d="M197.1 159.4v-32c5.7-.2 11.4.2 17.5 1 1 5.8 6.7 6.4 9.4 7 8.5 2.3 17.5 2.5 26.3 3.5.4 0 .8-.1 1.6.2l1.5.8 25 15.5c3 2 5.6 4.7 8.4 7.6-4.5 1.5-9.8 1.4-13.4 3.7-5.7 3.8-13.3 5.6-16.9 12.5-1-.5-1.8-.8-2.4-1.3a88.3 88.3 0 0 0-57-18.5z"/><path fill="#300e31" d="M257 71.1a2.4 2.4 0 0 1 1.6.5c0 1.4-.1 2.6-.8 3.2-2.4 2.2-2.8 2.7-.2 4.1 3.2 1.8 5 5 8.1 7 3.9 2.3 7.3 4.9 11.9 5.7l32.3 6.4c3.7 2.8 7.3 5.5 10.8 8.7-2.4.8-4.6 1.2-6.8 1.6l.9 1.2c-.8.4-1.6 1.3-2.4 1.2-11-1-22-1.5-32.8-3.1-9-1.4-18-3.8-26.8-6.5-2.7-.9-3.7-.8-5 1.2L207.6 93l29.8-24.1c1.9-1.5 5.2-2 7.7-1.6 3.4.4 6.8 2 10.6 3.3l1.4.6z"/><path fill="#320e30" d="M257 443c-5.8 1.6-11.6 3.9-17.5 4.7-2.2.3-5-2.5-7.2-4.3a76 76 0 0 1-9.1-8.3c1.7-6.1 6-9.6 10.5-12.8 4.6-3.3 9.5-6.3 14.7-9.3 5.4-1.1 10.6-2.3 15.7-3.5 6-1.3 11.9-3.1 17.9-3.9 9.5-1.2 19.2-1.8 28.8-2.6.8-.1 1.5-.7 2.5-.8l.6 2.7 7.2 2.3c-3.2 2.5-6.3 5-10.1 7.7-1 .6-1.2 1.1-1.4 1.6l-.4-.1c-.6-.4-1-.7-1.2-.7-10 2-20.1 3.6-30 6-4.1 1-8 3.4-11.6 5.7-4.7 3.2-10.4 5.6-11.8 12.1l2.4 3.4z"/><path d="M197.5 387a424 424 0 0 1 0-31.9c5-.7 9.5-.3 13.8-1.3 8.3-1.8 16.5-4.4 24.7-6.3 1 1.4 2 2.7 3 3.5 7.7 5.5 16.7 7.5 25.6 9.8 2.2.6 4.2 2 6.4 3.1a1080.6 1080.6 0 0 1-19 11.2h-2a77.9 77.9 0 0 0-32.8 6.5c-1.2.5-1.6 2.8-2.3 4.3l-17.5 1.2z" class="F"/><path fill="#641d2a" d="M382 30c1.5.1 3 .3 4.8.7-1.7 1.5-3.7 2.7-5.7 4 .3.1.9.5 1.4 1.1-15.4 2.7-30.7 4.8-45.9 7.3-4 .7-7.8 2.6-12 4-.7 0-1 0-1.5-.3-.5 0-.8.2-1.3.6-3 2-11 1.7-14.4.4-4.5-1.7-8.7 0-12.6 2.4 0 0 .2 0 .2-.3l-.6-1-.4 1.1-22.4-8.4 4.6-3.6 30.5-6.2c6-1 11.7-4.1 18.2-2 1.2.4 3-1 4.8-1.4.4.4.6.6.7.9l.6-1.3s.5 0 .7.3l.7 1 .6-1.3 19.6-.6c1 0 2 .8 3.3 1.7 1.4.2 2.2 0 3.1 0 0 0 .5-.1.8 0 .7.1 1 0 1.2-.1 0 0 .5 0 .8.2l1.2-.2h.3c4.7.1 9.2 0 13.8.3a7 7 0 0 0 2.3.6h2.6z"/><path fill="#634a2a" d="m298 175 18.8 32.6a40 40 0 0 1-6.9-.4c-1.7 2.6-3.5 4.7-8 3-5.4-2-11.2-3-16.9-4-1.2-.3-2.7.5-4.4.6a322 322 0 0 1-12.6-17.7c2-.9 4.4-1 5.4-2.4 3-4 6-7.4 11.6-7.2 1 0 2-.2 3-.6l10-3.8zm19.2 131a131.7 131.7 0 0 1-19 32.5c-3.7-1.2-6.9-2.5-10.2-3.5-2.6-.8-6.8-.3-8-2-3-4.8-7.7-6.3-12.2-8.5 4.5-6 8.8-11.8 13.4-17.4 2 .2 4 .8 5.8.3 4.4-1.1 8.6-3.2 13-4 3.3-.6 7.7-1.9 8.1 2.7h9z"/><path fill="#a89e44" d="M392 439c1.7 1 3.3 2.3 5 2.7 2.4.5 5 .2 7.7.2l4 .6v.4l-21 2.5 5 1-9.6 1.8v1.5l23.7 6c-5.8.8-11.7 1.4-17.7 2.1-4.2-.2-8.2-.9-12.3-1.2-6.5-.5-13.1-.6-19.7-1.1-6.4-.5-12.8-1.3-19.2-1.9-2-.2-4.2-.2-6.7-.7-5-.9-9.7-1.4-14.3-2l12.9-8.6c2.9.6 5.9 2.6 8 1.9 9.7-3.5 19.8-.8 29.6-2.2a853.6 853.6 0 0 1 24.6-3zm0-384c1.7 1 3.3 2.3 5 2.7 2.4.5 5 .2 7.7.2l4 .6v.4l-21 2.5 5 1-9.6 1.8v1.5l23.7 6c-5.8.8-11.7 1.4-17.7 2.1-4.5-.2-8.9-1-13.2-1.2-7.4-.5-14.8-.7-22.2-1.1-5.9-.4-11.7-1-17.6-1.2-2-.1-4 .5-6 1.2-4.3-2.4-8.6-5.1-12.7-8.2 5.3-1 10.5-1.7 15.6-2.4l31.4-3c8.6-.8 17.2-2 26.4-2.9h1.2z"/><path fill="#330f31" d="M271.3 363.8c-2.5-1-4.5-2.4-6.7-3-9-2.3-17.9-4.3-25.5-9.8a11 11 0 0 1-3-3.8c7-4.7 14-8.6 20.9-12.3l4.5 3.7c.5.5.5 1.7 1 2 5.8 2.9 10.7 7.7 17.8 7.6 2.2 0 4.5 1.8 6.7 2.7l-15.7 13z"/><path fill="#a25418" d="M354.9 218c-1.4-4.7-2.8-9.3-4-14.7-.6-3.4.5-4.1 3.2-3.8l29.7 2.6c1.5 6.6 3 13.2 4 20.2-11.1-1.2-22-2.8-33-4.3z"/><path fill="#501b29" d="M356 484c-2.4 3.9-6.3 1.6-9.4 2-4 .4-8-.1-12.3-.4-.3-.1-.3-.6-.4-.7-.4-.1-.7 0-1.2.1-.2 0-.7 0-.8-.2l-3.2 1c-1.6-.8-2.9-1.6-4.2-1.7-2.3-.3-4.8.3-7-.2l-38-7.9-6.9-.9-2.3-2a391 391 0 0 1 23.5-8.9l6.4 3c1.5 1.7 2.8 3.8 4.5 4.2 9 2.1 17.3 6.2 26.6 7.6 8.3 1.2 16.5 3.3 24.7 5z"/><path fill="#a15218" d="M378 329.9c-2.7 5.6-5.3 11.2-8.6 17a670 670 0 0 1-24.9-3l-8.6-1c2.3-4.8 4.7-9.5 7.5-14.5 11.2-.2 22-.1 32.7.1.6 0 1.3.9 1.9 1.4z"/><path fill="#290a31" d="M324.9 278c-.4 2.2-.7 4.5-1.6 6.8l-35 6.6c2-8.4 3.8-16.4 6.1-24.4h31.7c0 1.4.1 2.8-.2 4.6-4.3.7-8.2 1-12 1.3v5.1h11z"/><path fill="#591f2b" d="M281 207c1.3-.3 2.8-1.1 4-.9 5.7 1.2 11.5 2 16.9 4.1 4.5 1.7 6.3-.4 8-3l7 .8a216 216 0 0 1 6 20.4 25 25 0 0 1-7.1-.3 1572 1572 0 0 1-27.8-6c-2.6-5.1-4.8-10.1-7-15.1zm7.3 84.7 34.7-6.6c-1.5 7-3.4 13.7-5.5 20.8-3.2.2-6.1.2-9.4.2-.4-4.6-4.8-3.3-8-2.7-4.5.8-8.7 2.9-13.1 4-1.8.5-3.7 0-5.8-.6 2.3-5.4 4.7-10.2 7-15z"/><path fill="#1f0835" d="M248.1 102.6c1-2.3 2-2.4 4.7-1.5a182 182 0 0 0 26.8 6.5c10.9 1.6 21.9 2.2 32.8 3 .8.2 1.6-.7 2.4-1l-.9-1.3 7-1.3c4.4 3.6 8.5 7.4 12.3 11.5-16.5.5-32.5.6-48.6.6-6.9-3.6-13.7-7.4-20.7-10.7-5-2.3-10.4-3.7-15.8-5.8z"/><path fill="#310d30" d="M272.8 475.5c2 0 4.4 0 6.7.5l38 8c2.2.4 4.7-.2 7 0 1.3.2 2.6 1 4.5 1.8 1.4-.1 2.2-.4 3-.8h2v.7c1.4.9 2.9 2.3 4.1 2.1 3.4-.4 6 1 8.8 2.9-4.8 0-9.8-.9-14.7-.8-5.7.1-11.4 1-17.6 2.4l6.9 2.8h-23.4c-8.7-6.4-17-12.9-25.3-19.6z"/><path fill="#320545" d="M364 357a180 180 0 0 1-10.2 14.9c-8.6-.5-16.4-1.2-24.2-1.8l-13.8-1.2c3.1-3.9 6.3-7.8 10.1-11.8 6.3 0 11.8.2 17.4.4 4 0 8.2.2 12.3.1 2.8 0 5.6-.4 8.4-.6z"/><path fill="#4f1d2a" d="M297.9 174.8a80.5 80.5 0 0 1-10 4.1c-.8.4-1.9.6-2.9.6-5.5-.2-8.6 3.2-11.6 7.2-1 1.3-3.4 1.5-5.7 2.2-4-3.1-7.4-6.3-10.8-9.5 3.2-7 10.8-8.9 16.5-12.7 3.6-2.3 9-2.2 13.6-3.4 3.6 3.6 7.2 7.4 10.9 11.5zm-10.6 176c-2.5-.8-4.8-2.6-7-2.6-7.1 0-12-4.7-17.8-7.6-.5-.3-.5-1.5-1-2-1.4-1.2-2.9-2.3-4.4-4 3.5-3.7 7-6.8 10.5-9.8 4.7 1.9 9.4 3.4 12.5 8.2 1 1.7 5.3 1.2 8 2 3.2 1 6.4 2.3 9.8 3.7a208 208 0 0 1-10.6 12.1z"/><path fill="#501e2d" d="M257.4 442.9a20 20 0 0 1-2.8-3.4c1.4-6.5 7.1-9 11.8-12 3.6-2.4 7.5-4.7 11.5-5.7 10-2.5 20-4.1 30.1-6 .3-.1.6.2 1.1.6a176.2 176.2 0 0 1-51.7 26.5z"/><path fill="#1d0834" d="M313 402c-.7.3-1.4.9-2.2 1-9.6.8-19.3 1.4-28.8 2.6-6 .8-12 2.6-17.9 4-5.1 1.1-10.3 2.3-15.7 3.2a.8.8 0 0 1-.4-.6c4.8-2 9.6-4 14.2-6.2 7.3-3.6 14.5-7.5 22.6-11.2l49 .4c-1.5 1.7-3 3.3-5.1 5-4.3 0-7.9-.2-11.5 0-1.4.2-2.8 1.2-4.2 1.8z"/><path fill="#501f2d" d="M309.8 97.7c-10.6-1.8-21.4-4-32.2-6-4.6-1-8-3.5-11.9-5.9-3.2-2-5-5.1-8.1-6.9-2.6-1.4-2.2-2 .2-4.1.7-.6.7-1.8 1.1-3 18.4 5.5 35 14.9 51 25.9z"/><path fill="#a79e47" d="M378.3 329.7c-1-.3-1.6-1.2-2.2-1.2l-32.5-.5a193 193 0 0 1 7-16.7c.6 1 .8 2.5 1.3 2.6 2 .4 4.2.7 6.2.6l25.7-2.5-5.5 17.7zm5.6-128c-10-.5-20-1.3-29.8-2.2-2.7-.3-3.8.4-3.3 3.4-2.5-5.2-5-10.7-7-16.6 4.3-.1 8.4.5 12.4.3 7.3-.6 14.5-1.6 21.8-2.5l5.9 17.6z"/><path d="M401.8 89.7c-3.3 6.3-8.6 5.8-14.9 4.4l-5-.6-29.3-3.3-15.9-13.8c3.6.3 7.4.9 11.1 1.7 6 1.2 12 2.7 18.1 4l35.9 7.6z" class="D"/><path fill="#3c034d" d="M391 269c-.3 4-.6 8.1-1.4 12.8-11 1.7-21.8 3-32.5 4.1.6-5 1.2-10 2.3-15.5 11-.7 21.3-1 31.7-1.4z"/><path d="M399.7 419c.4 1.5.4 3 .4 4.8-5.1 1.4-10 2.7-15 3.7l-33.7 6.6c-4.7 1-9.3 2.5-14.5 3.8a220 220 0 0 1 15.8-13.9c4.1-.4 7.6-.5 11-1 7.8-1.2 15.5-2.6 23.3-4h12.7z" class="D"/><path fill="#6c1d2d" d="m364.3 356.9-8.7.7-12.3-.1-17-.6c2.7-4.6 5.8-9.2 9.3-14l9 1 24.5 3.3a81.6 81.6 0 0 1-4.8 9.7z"/><path fill="#05020f" d="M302.9 133a40 40 0 0 1-6.6-5.9c14.4-1.4 28.6-2.3 42.8-3.1 3 3 5.8 6.1 8.6 9.8-15 .2-30-.3-44.8-.7zM347 381.1c-2.4 3-4.8 5.8-8 8.8l-34.1-1c-3-.1-6-1.3-9-2 2.1-2 4.2-3.8 7.1-5.8l39-1c1.7 0 3.4.7 5 1z"/><path d="M332.9 60.6c-5 1-10.2 1.7-15.7 2.4-7.6-4-14.8-8.1-22.3-12.5 3.8-2.7 8-4.4 12.5-2.7 3.4 1.3 11.4 1.7 14.7-.4l1.1-.4c.4 0 .7 0 1.5.3 4.6 1.8 10.6.8 11.3 7.7-.2 2.3-5.6 1.3-3.1 5.6z" class="Q"/><path fill="#310d30" d="m288.3 222.3 27.5 5.8c2.2.5 4.6.5 7.2.7 1 2.1 1.5 4.3 1.6 6.6-3.5 0-6.5-.3-9.5-.6-.7 4.2-.7 4.2-6.5 4.2a210 210 0 0 1-15.8-1.4l-4.5-15.3z"/><path d="M300 467a89 89 0 0 1-5.8-2.7c7.2-4.5 14.7-8.7 22.4-13.1 4.9.3 9.5.8 14.3 1.6 1.1 1.2 1.9 2.3 2.9 3.2.9.9 2 1.5 2.7 2.7l-4 6.7c-3.1-.4-6.3-.9-9.8-1.2l-12-.9c-2.4 1.3-3.6 2.3-5 2.7-1.9.6-3.8.7-5.7 1z" class="Q"/><path d="M359 263c-.1-3.7-.2-7.4.2-11.5 1.5-.4 2.4-.3 3.4-.3l28.4.8c.1 3 .2 6-.3 9.6a22 22 0 0 1-6.4 1.4H359z" class="N"/><path fill="#200b36" d="M247.6 412.2c.4 0 .4.4.4.6-4.8 3.2-9.7 6.2-14.3 9.5a25.6 25.6 0 0 0-10.7 12.5c-6.4-4.4-12.7-9.1-18.4-13.4l43-9.2z"/><path fill="#741f2c" d="M364.8 158c1.4 2.4 2.8 4.8 3.9 7.8-11.2 2-22 3.7-32.9 5.3a78 78 0 0 1-6.1-8.8c7.7-1.7 15-3 22.6-4.5.7-.8 1.2-1.5 1-1.1l11.5 1.2z"/><path fill="#aa6c15" d="M384 311.6a586 586 0 0 1-25.9 2.9 26 26 0 0 1-6.2-.6c-.5-.1-.7-1.7-1-2.8.3-2.2.7-4.1 1.7-5.9 1.5.2 2.5.4 3.4.3l29.9-4.5-2 10.6z"/><path fill="#99391a" d="M335.9 171.5c10.8-2 21.6-3.6 32.8-5.4a35 35 0 0 1 4.3 8.4c-11 2.5-21.5 4.5-32 6.5-1.7-3-3.4-6.1-5.1-9.5zM386 300.6a889.2 889.2 0 0 1-30 4.9 7 7 0 0 1-3-.5c.4-3 1-5.6 2.2-8.7 2.3-.7 4-1 5.9-1.3l27.3-3.9-2.3 9.5z"/><path fill="#2b0445" d="M319.9 150.1a25.2 25.2 0 0 1-3.7-4.7c12.8-1.4 25.2-2.4 37.7-3.4 1.3 1.5 2.6 3 4 5-3.3 6-9.2 4.5-14 5.6-4-.6-8-.8-12-1.2-2-.1-4.8.2-5.7-1-2.4-2.6-4.2-1.8-6.3-.3z"/><path fill="#aa6c15" d="M341 181.4c10.5-2.4 21-4.4 32-6.5 2 2.8 3.4 5.7 5 8.9-7.3 1.2-14.5 2.2-21.8 2.8-4 .2-8.1-.4-12.6-.6a20 20 0 0 1-2.6-4.6z"/><path fill="#771c33" d="M388.6 290.8c-9.3 1.6-18.4 2.9-27.5 4.2l-5.8 1c.3-3.1 1-6.2 1.7-9.7 10.8-1.6 21.5-2.8 32.5-4.1a47 47 0 0 1-.9 8.6zm-33.8-72.4c11 1.1 21.9 2.7 33.2 4.3.9 2.9 1.5 5.7 1.6 8.8-11.1-.9-21.8-2.2-32.5-3.5-.8-3-1.6-6.1-2.3-9.6z"/><path d="M357 228.4c10.8 1 21.5 2.2 32.5 3.5.8 2.5 1.3 4.9 1.3 7.7-4.8 0-9-.3-13.3-.8l-19.6-2.8-.9-7.6z" class="R"/><path fill="#0f0825" d="M295.6 387c3.3.6 6.3 1.8 9.3 2 11 .5 22.2.7 33.8 1a38.6 38.6 0 0 1-4.7 5h-48.9c3-2.8 6.6-5.4 10.5-8zM339 123.6l-42.8 3.2c-4-2.1-7.6-4.6-11.4-7.4l48.5-.6c2.2 1.5 4 3 5.7 4.8z"/><path d="M326 252c.1 3 .2 6-.3 9.6-11-.3-21.3-1-31.8-2 0-2.2 0-3.9.5-5.6l31.6-2z" class="N"/><path fill="#781e2f" d="M387 418.7c-7.8 1.7-15.5 3-23.3 4.3-3.4.5-6.9.6-10.7.9 2.6-3.2 5.7-6.4 9.3-9.8 7-.2 13.3-.2 19.7-.2 1.7.3 3.5.5 5.6 1 0 1.2-.3 2.3-.6 3.8z"/><path d="M293 238c5 .3 10 .7 15.8 1.3l17.3 2.7c0 1.4.1 2.8-.4 4.6-11 .4-21.4.4-31.9 0l-.9-8.6z" class="F"/><path fill="#781e2f" d="M352.8 90.5c9.6.8 19.3 2 29 3l4.8.5c.4.5.4.9.3 1.7 0 .4 0 .3.1.3.3 0 .6.3 1 .8-1.3 1-2.5 2.3-3.9 2.6-3 .6-6 .7-9.4 1.3-4.4 0-8.5-.3-12.5-.6l-9.4-9.6z"/><path fill="#100825" d="M347.4 381c-2-.2-3.7-1-5.4-1l-38.7 1c0-.7.5-1.3 1.6-2 .7-.5.9-.8 1-1h.3c.5-.3.7-.6.8-.9 0 0 .3-.3.7-.3.8-.3 1.1-.6 1.4-1 0-.2.1-.3.9-.6a991 991 0 0 1 34.4-.1c2 0 3.8 1.4 5.7 2.2l-2.7 3.7zM303 133.3l44.8.9c1 .4 1.6 1.2 2 2.5-1.8 1.2-3.5 2.2-5.2 2.2h-34.8l-.7-.7c-.6-.7-1-.9-1.4-1 0 0-.4 0-.7-.4-.4-.6-.7-.8-1-.8l-.1-.2-1-.8-2-1.7z"/><path fill="#2a0146" d="M357.8 236.4c6.6.5 13.1 1.5 19.7 2.4 4.2.5 8.5.8 13.2 1.2.5 1.4.5 2.8 0 4.6-10.9 0-21.2-.3-31.6-.6-.5-2.4-1-4.8-1.3-7.6z"/><path fill="#41132e" d="M320 150.4c2-1.8 3.8-2.6 6.2 0 1 1.2 3.7.9 5.6 1 4 .4 8 .6 11.8 1.4-1.9.8-3.5 1-5.2 1.5L333 156h10c3 .2 6.6-1.4 9 2l-22.5 4a179 179 0 0 1-9.6-11.6m10.8 5.8-.4-.5c0 .2 0 .5.4.5z"/><path d="M350.4 377c-2.2-.5-4-1.9-6-1.9-11.2-.2-22.5 0-34.2 0 1.4-1.9 3.2-3.8 5.3-6a3394.7 3394.7 0 0 0 38 2.9c-.7 1.6-1.7 3.3-3 5zm-40.6-237.9 34.8-.2c1.7 0 3.4-1 5.3-1.8a27 27 0 0 1 4 4.6l-37.8 3.4a56.3 56.3 0 0 1-6.3-6z" class="K"/><path d="M294 247h31.6c.5 1.4.6 2.8.6 4.6-10.6 1-21 1.7-31.9 2-.5-2.5-.4-4.6-.3-6.6zm0 13 31.6 2c.5 1.4.6 2.8.6 4.6a404 404 0 0 1-31.9 0c-.5-2.5-.4-4.5-.3-6.6z" class="C"/><path fill="#180f2c" d="M250.1 138.6c-8.6-.7-17.6-.9-26-3.1-2.8-.7-8.6-1.3-9.1-7 8.4 1.5 16.9 3.3 25.2 5.5 3.4 1 6.5 2.9 10 4.6zM215.4 386c.3-1.6.7-3.9 1.9-4.4a79 79 0 0 1 32.5-6.5c-7.3 3-15 6.1-23 8.8-3.5 1.2-7.3 1.5-11.4 2z"/><path d="m333 156 5.4-1.7 5.3-1.2c5-1.6 11 0 14.3-5.7 2.2 3 4.4 6.5 6.7 10.2-3.5 0-7-.4-11.5-.9l-1 1.1c-2.5-3.2-6-1.6-9-1.8H333z" class="R"/><path d="M359 244.4c10.5 0 20.8.3 31.6.6.5.7.6 1.5.1 2.6-11 .4-21.2.4-31.6.4v-3.6zm32.2 24.3c-10.5.7-20.9 1-31.7 1.3a5 5 0 0 1 0-3.6c10.9-.4 21.2-.4 31.6-.4v2.7z" class="F"/><path d="M359 248.4c10.5-.4 20.8-.4 31.6-.4a7 7 0 0 1 .6 3.6c-9.6.1-19.1-.1-28.6-.4-1 0-2 0-3.3-.2a5 5 0 0 1-.3-2.6zm32.2 17.2c-10.5.4-20.8.4-31.6.4-.6-.8-.7-1.5-.7-2.6 8.5-.4 17-.3 25.4-.4 2 0 4-.6 6.3-1 .5 1 .6 2.1.6 3.6z" class="C"/><path fill="#2b0445" d="M326.1 241.6c-5.6-.4-11-1.2-16.9-2.3 5.2-.3 5.2-.3 5.9-4.5l9.4 1c.8 2 1.2 3.7 1.6 5.8zm-12.8 160.6a9.4 9.4 0 0 1 4-2c3.5-.2 7.1 0 11 0a58 58 0 0 1-6.9 7l-7.5-2.3-.6-2.7m3.4 1.8 4-.4-.4-1.5-4.6 2 1-.1zm8.3-126.4c-3.7.4-7.3.4-11.2.4v-5l12-.9c0 1.8-.4 3.5-.8 5.6m-8.3-1.6 4-.4-.4-1.5-4.6 2 1-.1z"/><path d="M382 413.6c-6.4.3-12.7.3-19.4.3.6-1.2 1.7-2.4 3.1-3.7 4.8-.2 9.3-.3 14-.3a14 14 0 0 1 2.2 3.7z" class="B"/><path fill="#650959" d="M362.2 100.4c4 0 8 .3 12.5.6 1 .5 1.6 1 2.3 1.7l-10.8 1c-1.4-.9-2.7-2-4-3.3z"/><path d="M413.8 157.7c-3 1-6.2 1.7-9.8 2.4-.7-.5-.9-1-1.2-1.7 3.6-.5 7.1-.7 11-.7z" class="J"/><path fill="#501e2d" d="M309.8 416.4c0-.4.3-.9.8-1.4 0 .4-.2.8-.8 1.4z"/><path d="M308.9 375.8c0 .4-.4.7-1 1 0-.3.4-.7 1-1z" class="K"/><path d="M294.2 50.1c0-.5 0-.9.2-1.2.2.3.4.5.5 1.1-.1.3-.6.3-.7.1z" class="Q"/><path fill="#501f2d" d="M257 70.9c-.4.1-.7 0-1-.3.3-.1.6 0 1 .3z"/><path d="M307.8 137.3c.3 0 .7.2 1.2.7-.3 0-.7-.2-1.2-.7z" class="K"/><path fill="#180f2c" d="M253.3 139.6c-.3.1-.6 0-1.2-.4.3-.2.6 0 1.2.4zm-1 235.5c0-.3.2-.6.8-1 0 .4-.2.7-.8 1z"/><path d="M306 136.3c.3-.3.6-.1.9.4-.2 0-.5 0-.9-.4zm.7 240.7c.2.4 0 .7-.5 1 0-.3 0-.6.5-1zm-1 1c0 .2 0 .5-.5.9 0-.2 0-.5.5-.9zm-.7-242.7c.2-.1.5 0 .9.5-.2 0-.5-.1-.8-.5z" class="K"/><path d="m331 27.9-.6 1.4-.4-1c.3-.4.6-.5 1-.4zm1.8.1c0 .4-.2.8-.4 1.2-.2-.2-.3-.4-.4-1 .1-.2.3-.2.8-.2z" class="E"/><path d="M383 409.8c0 .2-.5.2-.7.2l.6-.2zm-2 0c0 .2-.5.2-.7.2l.6-.2z" class="B"/><path d="m323 464.1 9.5 1.3a69 69 0 0 1 4-6.3l29.9 7c11.6 2.7 23.4 5 35.4 7.6-3.3 6.3-8.6 5.8-14.9 4.4-5.2-.8-9.7-1.7-14.3-2-16-1.3-31.7-4.3-47.1-8.7-1-.3-1.7-2.2-2.5-3.3z" class="D"/><path d="M392 438.8c-.2.2-.4.3-.8.2 0-.1.3-.2.7-.2z" class="O"/><path d="M336.2 55.2c-.9-7-6.9-6-11.3-7.9 3.9-1.6 7.7-3.5 11.7-4.2l46-7c5.8-.5 11.2-.8 17-1.1.5 1.5.5 3 .5 4.8-5.4 1.5-10.7 3-16 4l-34 6.5c-4.7 1-9 3.3-13.9 4.9z" class="D"/><path d="M392 54.8c-.2.3-.4.3-.8.2 0-.1.3-.2.7-.2z" class="O"/><path fill="#76202c" d="M322.7 464.2c1.1 1 1.7 2.9 2.8 3.2 15.4 4.4 31 7.4 47.1 8.7 4.6.3 9.1 1.2 14 1.9.4.4.4.9.3 1.7 0 .4 0 .3.1.3.3 0 .6.3 1 .7-1.3 1.1-2.5 2.4-3.9 2.7-3 .6-6 .7-9.4 1.3-3.5.3-6.6.3-9.7.4 0 0-.5 0-.8-.2a2 2 0 0 0-1.2.1s-.5 0-1-.3c-1.6 0-2.8.1-4 .3l-1.7-.8c-8.5-1.9-16.7-4-25-5.2-9.3-1.4-17.6-5.5-26.6-7.6-1.7-.4-3-2.5-4.5-4.1 1.7-.6 3.6-.7 5.4-1.3 1.5-.4 2.7-1.4 5-2.7l12.1.9z"/><path d="M365 485.4c3-.4 6.2-.4 9.7-.4 1 .5 1.6 1 2.3 1.7-4-.2-8-.6-12-1.3zm-6.7-.3c1-.3 2.1-.5 3.5-.4-1 .4-2 .4-3.5.4zm4.9-.1.7-.2c0 .2-.2.2-.7.2zM382 29.6c-.8.4-1.5.4-2.6 0s-1.8-.5-2.4-.6h-13.7c1.6-.7 3.5-1.6 5.5-2 3.5-.5 7.1-.8 11-1a20 20 0 0 1 2.1 3.6zm-23.1-.8c-.8.4-1.6.5-2.7.5.7-.4 1.6-.6 2.7-.5zm1.9.2c0 .1-.3.2-.7.2 0-.2.2-.2.7-.2zm22.1-3.2c0 .2-.4.2-.6.2l.6-.2zm-2 0c0 .2-.4.2-.6.2l.6-.2zM362.7 29l-.6.2c0-.2.2-.2.6-.2z" class="B"/><path d="M430.8 156.7c-1.2.6-2.6 1-4.4 1.3 1-.5 2.6-1 4.4-1.3zM425.4 286c1.4-.5 3.3-1 5.3-1.3-1.4.6-3.2 1-5.3 1.3zm9.3-57.3c-2.3.2-5 .2-7.6-.3a30 30 0 0 1 7.6.3z" class="J"/><path fill="#200932" d="M260.9 267a63.4 63.4 0 0 1-29.7 45.5c-10 6.5-21 10.2-33.7 9.6-.4-10.5-.4-21 0-32 8.6-.4 15.8-3.3 21-9.2 4.2-4.7 7-10.6 10.8-16l31.6 2zM197 192.4a59 59 0 0 1 48.7 21.6 55.3 55.3 0 0 1 14.4 30c.1.7.6 1.5.4 2.6-11 1-21.3 1.8-32 2.2-5-16.1-18.5-25.2-31.4-24.4v-32z"/><path d="M377 29.3c.6-.2 1.3 0 2 .3-.6.2-1.2 0-2-.3z" class="I"/><path d="M323 46.8c0 .2-.2.3-.7.3 0-.1.3-.3.8-.3z" class="D"/><path d="M331.9 484.8c-.7.6-1.5.9-2.6 1.2.6-.5 1.5-1 2.6-1.2zm2.1.1-.8.1c0-.1.3-.2.7-.1z" class="E"/><path d="M387 96z" class="M"/><path d="M330.6 156.3c-.2-.1-.2-.4-.2-.6l.2.6zm2.4-.3h-.1.1z" class="R"/><path fill="#320e30" d="m316 404 4.3-1.9.4 1.5-4.3.4h-.4zm0 0h-.1.1z"/><path fill="#290a31" d="m316 276 4.3-1.9.4 1.5-4.3.4h-.4zm0 0h-.1.1z"/><path d="M387 480h-.1.1z" class="M"/><path d="M229.3 265c-.5-5-.6-10-.5-15.5 10.4-1.1 20.8-1.8 31.6-2.5.5 6.4.6 12.7.5 19.5-10.4-.2-20.8-.9-31.6-1.5z" class="C"/></svg>
