<?xml version="1.0" standalone="no"?>
<!DOCTYPE svg PUBLIC "-//W3C//DTD SVG 20010904//EN"
 "http://www.w3.org/TR/2001/REC-SVG-20010904/DTD/svg10.dtd">
<svg version="1.0" xmlns="http://www.w3.org/2000/svg"
 width="619.000000pt" height="619.000000pt" viewBox="0 0 619.000000 619.000000"
 preserveAspectRatio="xMidYMid meet">
<metadata>
Created by potrace 1.14, written by Peter Selinger 2001-2017
</metadata>
<g transform="translate(0.000000,619.000000) scale(0.100000,-0.100000)"
fill="#000000" stroke="none">
<path d="M2862 5392 l-184 -147 39 -14 c89 -34 342 -168 432 -228 279 -188
521 -438 692 -714 73 -116 180 -343 223 -469 153 -452 165 -951 35 -1405 -179
-626 -622 -1158 -1199 -1438 -82 -39 -149 -74 -149 -77 0 -3 68 -58 150 -123
l149 -117 1570 0 1570 0 0 2440 0 2440 -1572 -1 -1573 -1 -183 -146z"/>
<path d="M2225 4883 c-156 -126 -159 -128 -125 -131 170 -13 452 -112 638
-223 120 -73 154 -98 252 -187 181 -164 304 -324 404 -525 316 -638 198 -1422
-291 -1928 -129 -133 -208 -199 -343 -283 -158 -99 -421 -202 -567 -223 l-42
-6 155 -124 154 -124 78 27 c411 140 815 469 1045 849 140 230 227 466 274
740 24 140 24 490 0 630 -75 433 -252 785 -551 1092 -219 226 -464 386 -751
491 -177 64 -146 71 -330 -75z"/>
<path d="M1325 4164 l-530 -423 -281 -1 c-313 0 -340 -4 -412 -66 -22 -19 -54
-62 -71 -96 l-31 -61 0 -416 c0 -415 0 -416 24 -466 34 -74 73 -114 141 -146
l60 -29 285 0 285 -1 530 -423 c459 -367 530 -421 533 -401 3 21 9 23 100 30
634 45 1154 506 1279 1132 26 132 24 415 -5 545 -106 485 -434 866 -887 1031
-147 53 -231 71 -392 83 l-92 7 -3 62 -3 63 -530 -424z m794 -46 c295 -64 575
-287 718 -573 93 -185 131 -419 102 -632 -65 -487 -440 -861 -935 -933 -38 -5
-86 -10 -106 -10 l-38 0 0 154 0 153 93 11 c343 39 615 299 676 646 49 272
-69 572 -289 741 -119 92 -257 146 -402 160 l-78 7 0 155 0 156 81 -7 c45 -4
125 -16 178 -28z m-165 -599 c89 -16 164 -56 232 -124 123 -121 171 -288 129
-448 -50 -194 -202 -328 -398 -352 l-57 -7 0 471 c0 536 -11 480 94 460z"/>
</g>
</svg>
